<svg width="14" height="19" viewBox="0 0 14 19" fill="none" xmlns="http://www.w3.org/2000/svg">
<path d="M5.05913 11.9551C5.63496 11.7798 6.16683 12.2506 6.16683 12.8525V15.8335C6.16683 16.2937 6.53992 16.6668 7.00016 16.6668C7.4604 16.6668 7.8335 16.2937 7.8335 15.8335V12.8509C7.8335 12.2495 8.3647 11.7788 8.94013 11.9536C11.3676 12.6907 13.2089 14.7753 13.5928 17.3369C13.6747 17.8831 13.2191 18.3335 12.6668 18.3335H1.33351C0.781221 18.3335 0.325818 17.8833 0.408355 17.3372C0.598829 16.0769 1.14795 14.8901 2.00017 13.9237C2.8225 12.9912 3.88375 12.313 5.05913 11.9551ZM7.00016 10.8335C4.23766 10.8335 2.00016 8.596 2.00016 5.8335C2.00016 3.071 4.23766 0.833496 7.00016 0.833496C9.76266 0.833496 12.0002 3.071 12.0002 5.8335C12.0002 8.596 9.76266 10.8335 7.00016 10.8335Z" fill="#111"/>
</svg>
